<?xml version="1.0" encoding="utf-8"?>
<!-- Generator: Adobe Illustrator 16.0.0, SVG Export Plug-In . SVG Version: 6.00 Build 0)  -->
<!DOCTYPE svg PUBLIC "-//W3C//DTD SVG 1.1//EN" "http://www.w3.org/Graphics/SVG/1.1/DTD/svg11.dtd">
<svg version="1.1" xmlns="http://www.w3.org/2000/svg" xmlns:xlink="http://www.w3.org/1999/xlink" x="0px" y="0px" width="1000px"
	 height="1000px" viewBox="0 0 1000 1000" enable-background="new 0 0 1000 1000" xml:space="preserve">
<g id="Layer_1" display="none">
	<g display="inline">
		<polygon fill="none" stroke="#000000" stroke-miterlimit="10" points="-1467.5,373.833 957.5,-626.167 957.5,1683.234 
			-1467.5,2683.234 		"/>
		<line fill="none" stroke="#000000" stroke-miterlimit="10" x1="-1466.915" y1="1960.072" x2="957.958" y2="960.072"/>
		<line fill="none" stroke="#000000" stroke-miterlimit="10" x1="-1465.816" y1="1913.432" x2="959.055" y2="913.43"/>
		<line fill="none" stroke="#000000" stroke-miterlimit="10" x1="-1467.142" y1="1867.789" x2="957.729" y2="867.79"/>
		<line fill="none" stroke="#000000" stroke-miterlimit="10" x1="-1467.068" y1="1823.881" x2="957.802" y2="823.88"/>
		<line fill="none" stroke="#000000" stroke-miterlimit="10" x1="-1465.97" y1="1777.24" x2="958.901" y2="777.24"/>
		<line fill="none" stroke="#000000" stroke-miterlimit="10" x1="-1467.296" y1="1731.6" x2="957.575" y2="731.598"/>
		<line fill="none" stroke="#000000" stroke-miterlimit="10" x1="-1467.223" y1="1687.689" x2="957.649" y2="687.689"/>
		<line fill="none" stroke="#000000" stroke-miterlimit="10" x1="-1466.125" y1="1641.049" x2="958.748" y2="641.048"/>
		<line fill="none" stroke="#000000" stroke-miterlimit="10" x1="-1466.051" y1="1597.141" x2="958.819" y2="597.139"/>
		<line fill="none" stroke="#000000" stroke-miterlimit="10" x1="-1467.377" y1="1551.498" x2="957.493" y2="551.499"/>
		<line fill="none" stroke="#000000" stroke-miterlimit="10" x1="-1467.305" y1="1507.59" x2="957.567" y2="507.589"/>
		<line fill="none" stroke="#000000" stroke-miterlimit="10" x1="-1466.206" y1="1460.949" x2="958.666" y2="460.949"/>
		<line fill="none" stroke="#000000" stroke-miterlimit="10" x1="-1467.532" y1="1415.309" x2="957.34" y2="415.307"/>
		<line fill="none" stroke="#000000" stroke-miterlimit="10" x1="-1467.458" y1="1371.398" x2="957.414" y2="371.398"/>
		<line fill="none" stroke="#000000" stroke-miterlimit="10" x1="-1466.36" y1="1324.758" x2="958.511" y2="324.757"/>
		<line fill="none" stroke="#000000" stroke-miterlimit="10" x1="-1467.686" y1="1279.117" x2="957.185" y2="279.117"/>
		<line fill="none" stroke="#000000" stroke-miterlimit="10" x1="-1467.612" y1="1235.207" x2="957.258" y2="235.208"/>
		<line fill="none" stroke="#000000" stroke-miterlimit="10" x1="-1466.515" y1="1188.566" x2="958.357" y2="188.566"/>
		<line fill="none" stroke="#000000" stroke-miterlimit="10" x1="-1466.44" y1="1144.658" x2="958.431" y2="144.658"/>
		<line fill="none" stroke="#000000" stroke-miterlimit="10" x1="-1465.343" y1="1098.018" x2="959.53" y2="98.016"/>
		<line fill="none" stroke="#000000" stroke-miterlimit="10" x1="-1466.669" y1="1052.375" x2="958.204" y2="52.375"/>
		<line fill="none" stroke="#000000" stroke-miterlimit="10" x1="-1466.595" y1="1008.466" x2="958.275" y2="8.466"/>
		<line fill="none" stroke="#000000" stroke-miterlimit="10" x1="-1465.497" y1="961.826" x2="959.374" y2="-38.174"/>
		<line fill="none" stroke="#000000" stroke-miterlimit="10" x1="-1465.423" y1="917.917" x2="959.448" y2="-82.083"/>
		<line fill="none" stroke="#000000" stroke-miterlimit="10" x1="-1466.75" y1="872.275" x2="958.122" y2="-127.725"/>
		<line fill="none" stroke="#000000" stroke-miterlimit="10" x1="-1465.65" y1="825.634" x2="959.222" y2="-174.366"/>
		<line fill="none" stroke="#000000" stroke-miterlimit="10" x1="-1465.578" y1="781.725" x2="959.295" y2="-218.275"/>
		<line fill="none" stroke="#000000" stroke-miterlimit="10" x1="-1466.904" y1="736.084" x2="957.969" y2="-263.916"/>
		<line fill="none" stroke="#000000" stroke-miterlimit="10" x1="-1466.83" y1="692.175" x2="958.04" y2="-307.825"/>
		<line fill="none" stroke="#000000" stroke-miterlimit="10" x1="-1465.732" y1="645.535" x2="959.14" y2="-354.465"/>
		<line fill="none" stroke="#000000" stroke-miterlimit="10" x1="-1467.059" y1="599.893" x2="957.813" y2="-400.107"/>
		<line fill="none" stroke="#000000" stroke-miterlimit="10" x1="-1466.985" y1="555.985" x2="957.887" y2="-444.015"/>
		<line fill="none" stroke="#000000" stroke-miterlimit="10" x1="-1465.887" y1="509.343" x2="958.986" y2="-490.657"/>
		<line fill="none" stroke="#000000" stroke-miterlimit="10" x1="-1465.813" y1="465.434" x2="959.06" y2="-534.566"/>
		<line fill="none" stroke="#000000" stroke-miterlimit="10" x1="-1467.139" y1="419.793" x2="957.733" y2="-580.207"/>
		<line fill="none" stroke="#000000" stroke-miterlimit="10" x1="912.5" y1="-607" x2="912.5" y2="1703"/>
		<line fill="none" stroke="#000000" stroke-miterlimit="10" x1="862.5" y1="-587" x2="862.5" y2="1723"/>
		<line fill="none" stroke="#000000" stroke-miterlimit="10" x1="814.5" y1="-567" x2="814.5" y2="1743"/>
		<line fill="none" stroke="#000000" stroke-miterlimit="10" x1="767.5" y1="-547" x2="767.5" y2="1761"/>
		<line fill="none" stroke="#000000" stroke-miterlimit="10" x1="719.5" y1="-527" x2="719.5" y2="1781"/>
		<line fill="none" stroke="#000000" stroke-miterlimit="10" x1="674.5" y1="-509" x2="674.5" y2="1801"/>
		<line fill="none" stroke="#000000" stroke-miterlimit="10" x1="624.5" y1="-489" x2="624.5" y2="1821"/>
		<line fill="none" stroke="#000000" stroke-miterlimit="10" x1="576.5" y1="-469" x2="576.5" y2="1841"/>
		<line fill="none" stroke="#000000" stroke-miterlimit="10" x1="532.5" y1="-449" x2="532.5" y2="1859"/>
		<line fill="none" stroke="#000000" stroke-miterlimit="10" x1="481.5" y1="-429" x2="481.5" y2="1879"/>
		<line fill="none" stroke="#000000" stroke-miterlimit="10" x1="436.5" y1="-411" x2="436.5" y2="1899"/>
		<line fill="none" stroke="#000000" stroke-miterlimit="10" x1="389.5" y1="-391" x2="389.5" y2="1919"/>
		<line fill="none" stroke="#000000" stroke-miterlimit="10" x1="338.5" y1="-371" x2="338.5" y2="1939"/>
		<line fill="none" stroke="#000000" stroke-miterlimit="10" x1="294.5" y1="-351" x2="294.5" y2="1957"/>
		<line fill="none" stroke="#000000" stroke-miterlimit="10" x1="243.5" y1="-331" x2="243.5" y2="1977"/>
		<line fill="none" stroke="#000000" stroke-miterlimit="10" x1="198.5" y1="-313" x2="198.5" y2="1997"/>
		<line fill="none" stroke="#000000" stroke-miterlimit="10" x1="151.5" y1="-293" x2="151.5" y2="2017"/>
		<line fill="none" stroke="#000000" stroke-miterlimit="10" x1="100.5" y1="-273" x2="100.5" y2="2037"/>
		<line fill="none" stroke="#000000" stroke-miterlimit="10" x1="56.5" y1="-253" x2="56.5" y2="2055"/>
		<line fill="none" stroke="#000000" stroke-miterlimit="10" x1="8.5" y1="-233" x2="8.5" y2="2075"/>
	</g>
</g>
<g id="Layer_2">
</g>
<g id="Layer_4">
</g>
<g id="Layer_5">
</g>
<g id="Layer_6">
</g>
<g id="Layer_3" display="none">
</g>
<g id="Layer_7">
	<linearGradient id="SVGID_1_" gradientUnits="userSpaceOnUse" x1="184.5" y1="986.4189" x2="184.5" y2="70.8438">
		<stop  offset="0" style="stop-color:#2E3192"/>
		<stop  offset="1" style="stop-color:#0071BC"/>
	</linearGradient>
	<polygon fill="url(#SVGID_1_)" points="80,70.844 289,188.034 289,986.419 80,869.76 	"/>
	<linearGradient id="SVGID_2_" gradientUnits="userSpaceOnUse" x1="500.5" y1="585.4824" x2="500.5" y2="310.1123">
		<stop  offset="0.5484" style="stop-color:#2E3192"/>
		<stop  offset="1" style="stop-color:#0071BC"/>
	</linearGradient>
	<polygon fill="url(#SVGID_2_)" points="290,484.146 290,585.482 711,411.882 711,310.112 	"/>
	<linearGradient id="SVGID_3_" gradientUnits="userSpaceOnUse" x1="500.5" y1="943.5273" x2="500.5" y2="58.9761">
		<stop  offset="0" style="stop-color:#2E3192"/>
		<stop  offset="1" style="stop-color:#0071BC"/>
	</linearGradient>
	<polygon fill="url(#SVGID_3_)" points="605,58.976 605,856.443 396,943.527 396,144.891 	"/>
	<linearGradient id="SVGID_4_" gradientUnits="userSpaceOnUse" x1="815.5" y1="924.7354" x2="815.4999" y2="14.5669">
		<stop  offset="0" style="stop-color:#2E3192"/>
		<stop  offset="1" style="stop-color:#0071BC"/>
	</linearGradient>
	<polygon fill="url(#SVGID_4_)" points="711,14.567 920,126.982 920,924.735 711,813.796 	"/>
	<linearGradient id="SVGID_5_" gradientUnits="userSpaceOnUse" x1="614.1982" y1="161.2168" x2="702.0137" y2="9.1159">
		<stop  offset="0.1398" style="stop-color:#2E3192"/>
		<stop  offset="0.5753" style="stop-color:#0071BC"/>
	</linearGradient>
	<polygon fill="url(#SVGID_5_)" points="711,14.304 605,58.976 605,155.906 711,111.72 	"/>
</g>
<g id="Layer_8">
</g>
</svg>
