<?xml version="1.0" encoding="utf-8"?>
<!-- Generator: Adobe Illustrator 16.0.0, SVG Export Plug-In . SVG Version: 6.00 Build 0)  -->
<!DOCTYPE svg PUBLIC "-//W3C//DTD SVG 1.1//EN" "http://www.w3.org/Graphics/SVG/1.1/DTD/svg11.dtd">
<svg version="1.1" xmlns="http://www.w3.org/2000/svg" xmlns:xlink="http://www.w3.org/1999/xlink" x="0px" y="0px" width="1000px"
	 height="1000px" viewBox="0 0 1000 1000" enable-background="new 0 0 1000 1000" xml:space="preserve">
<g id="Layer_1" display="none">
	<g display="inline">
		<polygon fill="none" stroke="#000000" stroke-miterlimit="10" points="612.5,-666.167 3037.5,-1666.167 3037.5,643.234 
			612.5,1643.234 		"/>
		<line fill="none" stroke="#000000" stroke-miterlimit="10" x1="612.458" y1="1599.295" x2="3037.329" y2="599.295"/>
		<line fill="none" stroke="#000000" stroke-miterlimit="10" x1="613.555" y1="1552.654" x2="3038.429" y2="552.654"/>
		<line fill="none" stroke="#000000" stroke-miterlimit="10" x1="614.654" y1="1506.012" x2="3039.524" y2="506.012"/>
		<line fill="none" stroke="#000000" stroke-miterlimit="10" x1="614.729" y1="1462.104" x2="3039.599" y2="462.104"/>
		<line fill="none" stroke="#000000" stroke-miterlimit="10" x1="613.402" y1="1416.463" x2="3038.272" y2="416.463"/>
		<line fill="none" stroke="#000000" stroke-miterlimit="10" x1="613.475" y1="1372.555" x2="3038.347" y2="372.555"/>
		<line fill="none" stroke="#000000" stroke-miterlimit="10" x1="614.574" y1="1325.912" x2="3039.445" y2="325.912"/>
		<line fill="none" stroke="#000000" stroke-miterlimit="10" x1="613.248" y1="1280.271" x2="3038.119" y2="280.271"/>
		<line fill="none" stroke="#000000" stroke-miterlimit="10" x1="613.32" y1="1236.363" x2="3038.193" y2="236.363"/>
		<line fill="none" stroke="#000000" stroke-miterlimit="10" x1="614.419" y1="1189.723" x2="3039.29" y2="189.723"/>
		<line fill="none" stroke="#000000" stroke-miterlimit="10" x1="614.493" y1="1145.813" x2="3039.363" y2="145.813"/>
		<line fill="none" stroke="#000000" stroke-miterlimit="10" x1="613.167" y1="1100.172" x2="3038.037" y2="100.172"/>
		<line fill="none" stroke="#000000" stroke-miterlimit="10" x1="614.265" y1="1053.531" x2="3039.137" y2="53.531"/>
		<line fill="none" stroke="#000000" stroke-miterlimit="10" x1="614.339" y1="1009.621" x2="3039.21" y2="9.621"/>
		<line fill="none" stroke="#000000" stroke-miterlimit="10" x1="613.013" y1="963.98" x2="3037.884" y2="-36.02"/>
		<line fill="none" stroke="#000000" stroke-miterlimit="10" x1="613.085" y1="920.072" x2="3037.958" y2="-79.928"/>
		<line fill="none" stroke="#000000" stroke-miterlimit="10" x1="614.184" y1="873.432" x2="3039.055" y2="-126.57"/>
		<line fill="none" stroke="#000000" stroke-miterlimit="10" x1="612.858" y1="827.789" x2="3037.729" y2="-172.21"/>
		<line fill="none" stroke="#000000" stroke-miterlimit="10" x1="612.932" y1="783.881" x2="3037.802" y2="-216.12"/>
		<line fill="none" stroke="#000000" stroke-miterlimit="10" x1="614.03" y1="737.24" x2="3038.901" y2="-262.76"/>
		<line fill="none" stroke="#000000" stroke-miterlimit="10" x1="612.704" y1="691.6" x2="3037.575" y2="-308.402"/>
		<line fill="none" stroke="#000000" stroke-miterlimit="10" x1="612.777" y1="647.689" x2="3037.649" y2="-352.311"/>
		<line fill="none" stroke="#000000" stroke-miterlimit="10" x1="613.875" y1="601.049" x2="3038.748" y2="-398.952"/>
		<line fill="none" stroke="#000000" stroke-miterlimit="10" x1="613.949" y1="557.141" x2="3038.819" y2="-442.861"/>
		<line fill="none" stroke="#000000" stroke-miterlimit="10" x1="612.623" y1="511.498" x2="3037.493" y2="-488.501"/>
		<line fill="none" stroke="#000000" stroke-miterlimit="10" x1="612.695" y1="467.59" x2="3037.567" y2="-532.411"/>
		<line fill="none" stroke="#000000" stroke-miterlimit="10" x1="613.794" y1="420.949" x2="3038.666" y2="-579.051"/>
		<line fill="none" stroke="#000000" stroke-miterlimit="10" x1="612.468" y1="375.309" x2="3037.34" y2="-624.693"/>
		<line fill="none" stroke="#000000" stroke-miterlimit="10" x1="612.542" y1="331.398" x2="3037.414" y2="-668.602"/>
		<line fill="none" stroke="#000000" stroke-miterlimit="10" x1="613.64" y1="284.758" x2="3038.511" y2="-715.243"/>
		<line fill="none" stroke="#000000" stroke-miterlimit="10" x1="612.314" y1="239.117" x2="3037.185" y2="-760.883"/>
		<line fill="none" stroke="#000000" stroke-miterlimit="10" x1="612.388" y1="195.207" x2="3037.258" y2="-804.792"/>
		<line fill="none" stroke="#000000" stroke-miterlimit="10" x1="613.485" y1="148.566" x2="3038.357" y2="-851.434"/>
		<line fill="none" stroke="#000000" stroke-miterlimit="10" x1="613.56" y1="104.658" x2="3038.431" y2="-895.342"/>
		<line fill="none" stroke="#000000" stroke-miterlimit="10" x1="614.657" y1="58.018" x2="3039.53" y2="-941.984"/>
		<line fill="none" stroke="#000000" stroke-miterlimit="10" x1="613.331" y1="12.375" x2="3038.204" y2="-987.625"/>
		<line fill="none" stroke="#000000" stroke-miterlimit="10" x1="993.5" y1="-823" x2="993.5" y2="1487"/>
		<line fill="none" stroke="#000000" stroke-miterlimit="10" x1="946.5" y1="-803" x2="946.5" y2="1507"/>
		<line fill="none" stroke="#000000" stroke-miterlimit="10" x1="898.5" y1="-783" x2="898.5" y2="1525"/>
		<line fill="none" stroke="#000000" stroke-miterlimit="10" x1="850.5" y1="-763" x2="850.5" y2="1545"/>
		<line fill="none" stroke="#000000" stroke-miterlimit="10" x1="803.5" y1="-745" x2="803.5" y2="1565"/>
		<line fill="none" stroke="#000000" stroke-miterlimit="10" x1="755.5" y1="-725" x2="755.5" y2="1585"/>
		<line fill="none" stroke="#000000" stroke-miterlimit="10" x1="710.5" y1="-705" x2="710.5" y2="1603"/>
		<line fill="none" stroke="#000000" stroke-miterlimit="10" x1="660.5" y1="-685" x2="660.5" y2="1623"/>
	</g>
</g>
<g id="Layer_2">
</g>
<g id="Layer_4">
</g>
<g id="Layer_5">
</g>
<g id="Layer_6">
</g>
<g id="Layer_3" display="none">
</g>
<g id="Layer_7">
</g>
<g id="Layer_8">
	<linearGradient id="SVGID_1_" gradientUnits="userSpaceOnUse" x1="184.5" y1="986.4189" x2="184.5" y2="70.8438">
		<stop  offset="0" style="stop-color:#29ABE2"/>
		<stop  offset="1" style="stop-color:#00FFFF"/>
	</linearGradient>
	<polygon fill="url(#SVGID_1_)" points="80,70.844 289,188.034 289,986.419 80,869.76 	"/>
	<linearGradient id="SVGID_2_" gradientUnits="userSpaceOnUse" x1="500.5" y1="585.4824" x2="500.5" y2="310.1123">
		<stop  offset="0.5484" style="stop-color:#29ABE2"/>
		<stop  offset="1" style="stop-color:#00FFFF"/>
	</linearGradient>
	<polygon fill="url(#SVGID_2_)" points="290,484.146 290,585.482 711,411.882 711,310.112 	"/>
	<linearGradient id="SVGID_3_" gradientUnits="userSpaceOnUse" x1="500.5" y1="943.5273" x2="500.5" y2="58.9766">
		<stop  offset="0" style="stop-color:#29ABE2"/>
		<stop  offset="1" style="stop-color:#00FFFF"/>
	</linearGradient>
	<polygon fill="url(#SVGID_3_)" points="605,58.977 605,856.443 396,943.527 396,144.891 	"/>
	<linearGradient id="SVGID_4_" gradientUnits="userSpaceOnUse" x1="815.5" y1="924.7354" x2="815.4999" y2="14.5664">
		<stop  offset="0" style="stop-color:#29ABE2"/>
		<stop  offset="1" style="stop-color:#00FFFF"/>
	</linearGradient>
	<polygon fill="url(#SVGID_4_)" points="711,14.566 920,126.982 920,924.735 711,813.796 	"/>
	<linearGradient id="SVGID_5_" gradientUnits="userSpaceOnUse" x1="614.1982" y1="161.2168" x2="702.0134" y2="9.1164">
		<stop  offset="0.1398" style="stop-color:#29ABE2"/>
		<stop  offset="0.5753" style="stop-color:#00FFFF"/>
	</linearGradient>
	<polygon fill="url(#SVGID_5_)" points="711,14.305 605,58.977 605,155.906 711,111.721 	"/>
</g>
</svg>
