<?xml version="1.0" encoding="utf-8"?>
<!-- Generator: Adobe Illustrator 16.0.0, SVG Export Plug-In . SVG Version: 6.00 Build 0)  -->
<!DOCTYPE svg PUBLIC "-//W3C//DTD SVG 1.1//EN" "http://www.w3.org/Graphics/SVG/1.1/DTD/svg11.dtd">
<svg version="1.1" xmlns="http://www.w3.org/2000/svg" xmlns:xlink="http://www.w3.org/1999/xlink" x="0px" y="0px" width="1000px"
	 height="1000px" viewBox="0 0 1000 1000" enable-background="new 0 0 1000 1000" xml:space="preserve">
<g id="Layer_1" display="none">
	<g display="inline">
		<polygon fill="none" stroke="#000000" stroke-miterlimit="10" points="612.5,373.833 3037.5,-626.167 3037.5,1683.234 
			612.5,2683.234 		"/>
		<line fill="none" stroke="#000000" stroke-miterlimit="10" x1="613.085" y1="1960.072" x2="3037.958" y2="960.072"/>
		<line fill="none" stroke="#000000" stroke-miterlimit="10" x1="614.184" y1="1913.432" x2="3039.055" y2="913.43"/>
		<line fill="none" stroke="#000000" stroke-miterlimit="10" x1="612.858" y1="1867.789" x2="3037.729" y2="867.79"/>
		<line fill="none" stroke="#000000" stroke-miterlimit="10" x1="612.932" y1="1823.881" x2="3037.802" y2="823.88"/>
		<line fill="none" stroke="#000000" stroke-miterlimit="10" x1="614.03" y1="1777.24" x2="3038.901" y2="777.24"/>
		<line fill="none" stroke="#000000" stroke-miterlimit="10" x1="612.704" y1="1731.6" x2="3037.575" y2="731.598"/>
		<line fill="none" stroke="#000000" stroke-miterlimit="10" x1="612.777" y1="1687.689" x2="3037.649" y2="687.689"/>
		<line fill="none" stroke="#000000" stroke-miterlimit="10" x1="613.875" y1="1641.049" x2="3038.748" y2="641.048"/>
		<line fill="none" stroke="#000000" stroke-miterlimit="10" x1="613.949" y1="1597.141" x2="3038.819" y2="597.139"/>
		<line fill="none" stroke="#000000" stroke-miterlimit="10" x1="612.623" y1="1551.498" x2="3037.493" y2="551.499"/>
		<line fill="none" stroke="#000000" stroke-miterlimit="10" x1="612.695" y1="1507.59" x2="3037.567" y2="507.589"/>
		<line fill="none" stroke="#000000" stroke-miterlimit="10" x1="613.794" y1="1460.949" x2="3038.666" y2="460.949"/>
		<line fill="none" stroke="#000000" stroke-miterlimit="10" x1="612.468" y1="1415.309" x2="3037.34" y2="415.307"/>
		<line fill="none" stroke="#000000" stroke-miterlimit="10" x1="612.542" y1="1371.398" x2="3037.414" y2="371.398"/>
		<line fill="none" stroke="#000000" stroke-miterlimit="10" x1="613.64" y1="1324.758" x2="3038.511" y2="324.757"/>
		<line fill="none" stroke="#000000" stroke-miterlimit="10" x1="612.314" y1="1279.117" x2="3037.185" y2="279.117"/>
		<line fill="none" stroke="#000000" stroke-miterlimit="10" x1="612.388" y1="1235.207" x2="3037.258" y2="235.208"/>
		<line fill="none" stroke="#000000" stroke-miterlimit="10" x1="613.485" y1="1188.566" x2="3038.357" y2="188.566"/>
		<line fill="none" stroke="#000000" stroke-miterlimit="10" x1="613.56" y1="1144.658" x2="3038.431" y2="144.658"/>
		<line fill="none" stroke="#000000" stroke-miterlimit="10" x1="614.657" y1="1098.018" x2="3039.53" y2="98.016"/>
		<line fill="none" stroke="#000000" stroke-miterlimit="10" x1="613.331" y1="1052.375" x2="3038.204" y2="52.375"/>
		<line fill="none" stroke="#000000" stroke-miterlimit="10" x1="613.405" y1="1008.466" x2="3038.275" y2="8.466"/>
		<line fill="none" stroke="#000000" stroke-miterlimit="10" x1="614.503" y1="961.826" x2="3039.374" y2="-38.174"/>
		<line fill="none" stroke="#000000" stroke-miterlimit="10" x1="614.577" y1="917.917" x2="3039.448" y2="-82.083"/>
		<line fill="none" stroke="#000000" stroke-miterlimit="10" x1="613.25" y1="872.275" x2="3038.122" y2="-127.725"/>
		<line fill="none" stroke="#000000" stroke-miterlimit="10" x1="614.35" y1="825.634" x2="3039.222" y2="-174.366"/>
		<line fill="none" stroke="#000000" stroke-miterlimit="10" x1="614.422" y1="781.725" x2="3039.295" y2="-218.275"/>
		<line fill="none" stroke="#000000" stroke-miterlimit="10" x1="613.096" y1="736.084" x2="3037.969" y2="-263.916"/>
		<line fill="none" stroke="#000000" stroke-miterlimit="10" x1="613.17" y1="692.175" x2="3038.04" y2="-307.825"/>
		<line fill="none" stroke="#000000" stroke-miterlimit="10" x1="614.268" y1="645.535" x2="3039.14" y2="-354.465"/>
		<line fill="none" stroke="#000000" stroke-miterlimit="10" x1="612.941" y1="599.893" x2="3037.813" y2="-400.107"/>
		<line fill="none" stroke="#000000" stroke-miterlimit="10" x1="613.015" y1="555.985" x2="3037.887" y2="-444.015"/>
		<line fill="none" stroke="#000000" stroke-miterlimit="10" x1="614.113" y1="509.343" x2="3038.986" y2="-490.657"/>
		<line fill="none" stroke="#000000" stroke-miterlimit="10" x1="614.187" y1="465.434" x2="3039.06" y2="-534.566"/>
		<line fill="none" stroke="#000000" stroke-miterlimit="10" x1="612.861" y1="419.793" x2="3037.733" y2="-580.207"/>
		<line fill="none" stroke="#000000" stroke-miterlimit="10" x1="993.5" y1="217" x2="993.5" y2="2527"/>
		<line fill="none" stroke="#000000" stroke-miterlimit="10" x1="946.5" y1="237" x2="946.5" y2="2547"/>
		<line fill="none" stroke="#000000" stroke-miterlimit="10" x1="898.5" y1="257" x2="898.5" y2="2565"/>
		<line fill="none" stroke="#000000" stroke-miterlimit="10" x1="850.5" y1="277" x2="850.5" y2="2585"/>
		<line fill="none" stroke="#000000" stroke-miterlimit="10" x1="803.5" y1="295" x2="803.5" y2="2605"/>
		<line fill="none" stroke="#000000" stroke-miterlimit="10" x1="755.5" y1="315" x2="755.5" y2="2625"/>
		<line fill="none" stroke="#000000" stroke-miterlimit="10" x1="710.5" y1="335" x2="710.5" y2="2643"/>
		<line fill="none" stroke="#000000" stroke-miterlimit="10" x1="660.5" y1="355" x2="660.5" y2="2663"/>
	</g>
</g>
<g id="Layer_2">
	<polygon fill="#2D6FBD" points="79,70.844 288,188.034 288,986.419 79,869.76 	"/>
	<polygon fill="#22538D" points="289,484.146 289,585.482 710,411.882 710,310.112 	"/>
	<polygon fill="#2D6FBD" points="604,58.976 604,856.443 395,943.527 395,144.891 	"/>
	<polygon fill="#2D6FBD" points="710,14.567 919,126.982 919,924.735 710,813.796 	"/>
	<polygon fill="#22538D" points="710,14.304 604,58.976 604,155.906 710,111.72 	"/>
</g>
<g id="Layer_4">
</g>
<g id="Layer_5">
</g>
<g id="Layer_6">
</g>
<g id="Layer_3" display="none">
</g>
<g id="Layer_7">
</g>
<g id="Layer_8">
</g>
</svg>
