<?xml version="1.0" encoding="utf-8"?>
<!-- Generator: Adobe Illustrator 16.0.0, SVG Export Plug-In . SVG Version: 6.00 Build 0)  -->
<!DOCTYPE svg PUBLIC "-//W3C//DTD SVG 1.1//EN" "http://www.w3.org/Graphics/SVG/1.1/DTD/svg11.dtd">
<svg version="1.1" xmlns="http://www.w3.org/2000/svg" xmlns:xlink="http://www.w3.org/1999/xlink" x="0px" y="0px" width="1000px"
	 height="1000px" viewBox="0 0 1000 1000" enable-background="new 0 0 1000 1000" xml:space="preserve">
<g id="Layer_1" display="none">
	<g display="inline">
		<polygon fill="none" stroke="#000000" stroke-miterlimit="10" points="-427.5,-666.167 1997.5,-1666.167 1997.5,643.234 
			-427.5,1643.234 		"/>
		<line fill="none" stroke="#000000" stroke-miterlimit="10" x1="-427.542" y1="1599.295" x2="1997.329" y2="599.295"/>
		<line fill="none" stroke="#000000" stroke-miterlimit="10" x1="-426.445" y1="1552.654" x2="1998.429" y2="552.654"/>
		<line fill="none" stroke="#000000" stroke-miterlimit="10" x1="-425.346" y1="1506.012" x2="1999.524" y2="506.012"/>
		<line fill="none" stroke="#000000" stroke-miterlimit="10" x1="-425.271" y1="1462.104" x2="1999.599" y2="462.104"/>
		<line fill="none" stroke="#000000" stroke-miterlimit="10" x1="-426.598" y1="1416.463" x2="1998.272" y2="416.463"/>
		<line fill="none" stroke="#000000" stroke-miterlimit="10" x1="-426.525" y1="1372.555" x2="1998.347" y2="372.555"/>
		<line fill="none" stroke="#000000" stroke-miterlimit="10" x1="-425.426" y1="1325.912" x2="1999.445" y2="325.912"/>
		<line fill="none" stroke="#000000" stroke-miterlimit="10" x1="-426.752" y1="1280.271" x2="1998.119" y2="280.271"/>
		<line fill="none" stroke="#000000" stroke-miterlimit="10" x1="-426.68" y1="1236.363" x2="1998.193" y2="236.363"/>
		<line fill="none" stroke="#000000" stroke-miterlimit="10" x1="-425.581" y1="1189.723" x2="1999.29" y2="189.723"/>
		<line fill="none" stroke="#000000" stroke-miterlimit="10" x1="-425.507" y1="1145.813" x2="1999.363" y2="145.813"/>
		<line fill="none" stroke="#000000" stroke-miterlimit="10" x1="-426.833" y1="1100.172" x2="1998.037" y2="100.172"/>
		<line fill="none" stroke="#000000" stroke-miterlimit="10" x1="-425.735" y1="1053.531" x2="1999.137" y2="53.531"/>
		<line fill="none" stroke="#000000" stroke-miterlimit="10" x1="-425.661" y1="1009.621" x2="1999.21" y2="9.621"/>
		<line fill="none" stroke="#000000" stroke-miterlimit="10" x1="-426.987" y1="963.98" x2="1997.884" y2="-36.02"/>
		<line fill="none" stroke="#000000" stroke-miterlimit="10" x1="-426.915" y1="920.072" x2="1997.958" y2="-79.928"/>
		<line fill="none" stroke="#000000" stroke-miterlimit="10" x1="-425.816" y1="873.432" x2="1999.055" y2="-126.57"/>
		<line fill="none" stroke="#000000" stroke-miterlimit="10" x1="-427.142" y1="827.789" x2="1997.729" y2="-172.21"/>
		<line fill="none" stroke="#000000" stroke-miterlimit="10" x1="-427.068" y1="783.881" x2="1997.802" y2="-216.12"/>
		<line fill="none" stroke="#000000" stroke-miterlimit="10" x1="-425.97" y1="737.24" x2="1998.901" y2="-262.76"/>
		<line fill="none" stroke="#000000" stroke-miterlimit="10" x1="-427.296" y1="691.6" x2="1997.575" y2="-308.402"/>
		<line fill="none" stroke="#000000" stroke-miterlimit="10" x1="-427.223" y1="647.689" x2="1997.649" y2="-352.311"/>
		<line fill="none" stroke="#000000" stroke-miterlimit="10" x1="-426.125" y1="601.049" x2="1998.748" y2="-398.952"/>
		<line fill="none" stroke="#000000" stroke-miterlimit="10" x1="-426.051" y1="557.141" x2="1998.819" y2="-442.861"/>
		<line fill="none" stroke="#000000" stroke-miterlimit="10" x1="-427.377" y1="511.498" x2="1997.493" y2="-488.501"/>
		<line fill="none" stroke="#000000" stroke-miterlimit="10" x1="-427.305" y1="467.59" x2="1997.567" y2="-532.411"/>
		<line fill="none" stroke="#000000" stroke-miterlimit="10" x1="-426.206" y1="420.949" x2="1998.666" y2="-579.051"/>
		<line fill="none" stroke="#000000" stroke-miterlimit="10" x1="-427.532" y1="375.309" x2="1997.34" y2="-624.693"/>
		<line fill="none" stroke="#000000" stroke-miterlimit="10" x1="-427.458" y1="331.398" x2="1997.414" y2="-668.602"/>
		<line fill="none" stroke="#000000" stroke-miterlimit="10" x1="-426.36" y1="284.758" x2="1998.511" y2="-715.243"/>
		<line fill="none" stroke="#000000" stroke-miterlimit="10" x1="-427.686" y1="239.117" x2="1997.185" y2="-760.883"/>
		<line fill="none" stroke="#000000" stroke-miterlimit="10" x1="-427.612" y1="195.207" x2="1997.258" y2="-804.792"/>
		<line fill="none" stroke="#000000" stroke-miterlimit="10" x1="-426.515" y1="148.566" x2="1998.357" y2="-851.434"/>
		<line fill="none" stroke="#000000" stroke-miterlimit="10" x1="-426.44" y1="104.658" x2="1998.431" y2="-895.342"/>
		<line fill="none" stroke="#000000" stroke-miterlimit="10" x1="-425.343" y1="58.018" x2="1999.53" y2="-941.984"/>
		<line fill="none" stroke="#000000" stroke-miterlimit="10" x1="-426.669" y1="12.375" x2="1998.204" y2="-987.625"/>
		<line fill="none" stroke="#000000" stroke-miterlimit="10" x1="998.5" y1="-1253" x2="998.5" y2="1055"/>
		<line fill="none" stroke="#000000" stroke-miterlimit="10" x1="953.5" y1="-1235" x2="953.5" y2="1075"/>
		<line fill="none" stroke="#000000" stroke-miterlimit="10" x1="902.5" y1="-1215" x2="902.5" y2="1095"/>
		<line fill="none" stroke="#000000" stroke-miterlimit="10" x1="858.5" y1="-1195" x2="858.5" y2="1113"/>
		<line fill="none" stroke="#000000" stroke-miterlimit="10" x1="810.5" y1="-1175" x2="810.5" y2="1133"/>
		<line fill="none" stroke="#000000" stroke-miterlimit="10" x1="762.5" y1="-1157" x2="762.5" y2="1153"/>
		<line fill="none" stroke="#000000" stroke-miterlimit="10" x1="715.5" y1="-1137" x2="715.5" y2="1173"/>
		<line fill="none" stroke="#000000" stroke-miterlimit="10" x1="667.5" y1="-1117" x2="667.5" y2="1193"/>
		<line fill="none" stroke="#000000" stroke-miterlimit="10" x1="620.5" y1="-1097" x2="620.5" y2="1211"/>
		<line fill="none" stroke="#000000" stroke-miterlimit="10" x1="572.5" y1="-1077" x2="572.5" y2="1231"/>
		<line fill="none" stroke="#000000" stroke-miterlimit="10" x1="522.5" y1="-1057" x2="522.5" y2="1251"/>
		<line fill="none" stroke="#000000" stroke-miterlimit="10" x1="477.5" y1="-1039" x2="477.5" y2="1271"/>
		<line fill="none" stroke="#000000" stroke-miterlimit="10" x1="429.5" y1="-1019" x2="429.5" y2="1291"/>
		<line fill="none" stroke="#000000" stroke-miterlimit="10" x1="382.5" y1="-999" x2="382.5" y2="1309"/>
		<line fill="none" stroke="#000000" stroke-miterlimit="10" x1="334.5" y1="-979" x2="334.5" y2="1329"/>
		<line fill="none" stroke="#000000" stroke-miterlimit="10" x1="286.5" y1="-959" x2="286.5" y2="1349"/>
		<line fill="none" stroke="#000000" stroke-miterlimit="10" x1="239.5" y1="-941" x2="239.5" y2="1369"/>
		<line fill="none" stroke="#000000" stroke-miterlimit="10" x1="191.5" y1="-921" x2="191.5" y2="1389"/>
		<line fill="none" stroke="#000000" stroke-miterlimit="10" x1="144.5" y1="-901" x2="144.5" y2="1407"/>
		<line fill="none" stroke="#000000" stroke-miterlimit="10" x1="96.5" y1="-881" x2="96.5" y2="1427"/>
		<line fill="none" stroke="#000000" stroke-miterlimit="10" x1="48.5" y1="-861" x2="48.5" y2="1447"/>
		<line fill="none" stroke="#000000" stroke-miterlimit="10" x1="1.5" y1="-843" x2="1.5" y2="1467"/>
	</g>
</g>
<g id="Layer_2">
</g>
<g id="Layer_4">
</g>
<g id="Layer_5">
	<polygon fill="#D5E2F2" points="80,70.844 289,188.034 289,986.419 80,869.76 	"/>
	<polygon fill="#D5E2F2" points="289,484.146 289,585.482 710,411.882 710,310.112 	"/>
	<polygon fill="#D5E2F2" points="604,58.977 604,856.443 395,943.527 395,144.891 	"/>
	<polygon fill="#D5E2F2" points="710,14.566 919,126.982 919,924.735 710,813.796 	"/>
	<polygon fill="#D5E2F2" points="710,14.305 604,58.977 604,155.906 710,111.721 	"/>
</g>
<g id="Layer_6">
</g>
<g id="Layer_3" display="none">
</g>
<g id="Layer_7">
</g>
<g id="Layer_8">
</g>
</svg>
