<?xml version="1.0" encoding="utf-8"?>
<!-- Generator: Adobe Illustrator 16.0.0, SVG Export Plug-In . SVG Version: 6.00 Build 0)  -->
<!DOCTYPE svg PUBLIC "-//W3C//DTD SVG 1.1//EN" "http://www.w3.org/Graphics/SVG/1.1/DTD/svg11.dtd">
<svg version="1.1" xmlns="http://www.w3.org/2000/svg" xmlns:xlink="http://www.w3.org/1999/xlink" x="0px" y="0px" width="1000px"
	 height="1000px" viewBox="0 0 1000 1000" enable-background="new 0 0 1000 1000" xml:space="preserve">
<g id="Layer_1" display="none">
	<g display="inline">
		<polygon fill="none" stroke="#000000" stroke-miterlimit="10" points="-1467.5,-666.167 957.5,-1666.167 957.5,643.234 
			-1467.5,1643.234 		"/>
		<line fill="none" stroke="#000000" stroke-miterlimit="10" x1="-1467.542" y1="1599.295" x2="957.329" y2="599.295"/>
		<line fill="none" stroke="#000000" stroke-miterlimit="10" x1="-1466.445" y1="1552.654" x2="958.429" y2="552.654"/>
		<line fill="none" stroke="#000000" stroke-miterlimit="10" x1="-1465.346" y1="1506.012" x2="959.524" y2="506.012"/>
		<line fill="none" stroke="#000000" stroke-miterlimit="10" x1="-1465.271" y1="1462.104" x2="959.599" y2="462.104"/>
		<line fill="none" stroke="#000000" stroke-miterlimit="10" x1="-1466.598" y1="1416.463" x2="958.272" y2="416.463"/>
		<line fill="none" stroke="#000000" stroke-miterlimit="10" x1="-1466.525" y1="1372.555" x2="958.347" y2="372.555"/>
		<line fill="none" stroke="#000000" stroke-miterlimit="10" x1="-1465.426" y1="1325.912" x2="959.445" y2="325.912"/>
		<line fill="none" stroke="#000000" stroke-miterlimit="10" x1="-1466.752" y1="1280.271" x2="958.119" y2="280.271"/>
		<line fill="none" stroke="#000000" stroke-miterlimit="10" x1="-1466.68" y1="1236.363" x2="958.193" y2="236.363"/>
		<line fill="none" stroke="#000000" stroke-miterlimit="10" x1="-1465.581" y1="1189.723" x2="959.29" y2="189.723"/>
		<line fill="none" stroke="#000000" stroke-miterlimit="10" x1="-1465.507" y1="1145.813" x2="959.363" y2="145.813"/>
		<line fill="none" stroke="#000000" stroke-miterlimit="10" x1="-1466.833" y1="1100.172" x2="958.037" y2="100.172"/>
		<line fill="none" stroke="#000000" stroke-miterlimit="10" x1="-1465.735" y1="1053.531" x2="959.137" y2="53.531"/>
		<line fill="none" stroke="#000000" stroke-miterlimit="10" x1="-1465.661" y1="1009.621" x2="959.21" y2="9.621"/>
		<line fill="none" stroke="#000000" stroke-miterlimit="10" x1="-1466.987" y1="963.98" x2="957.884" y2="-36.02"/>
		<line fill="none" stroke="#000000" stroke-miterlimit="10" x1="-1466.915" y1="920.072" x2="957.958" y2="-79.928"/>
		<line fill="none" stroke="#000000" stroke-miterlimit="10" x1="-1465.816" y1="873.432" x2="959.055" y2="-126.57"/>
		<line fill="none" stroke="#000000" stroke-miterlimit="10" x1="-1467.142" y1="827.789" x2="957.729" y2="-172.21"/>
		<line fill="none" stroke="#000000" stroke-miterlimit="10" x1="-1467.068" y1="783.881" x2="957.802" y2="-216.12"/>
		<line fill="none" stroke="#000000" stroke-miterlimit="10" x1="-1465.97" y1="737.24" x2="958.901" y2="-262.76"/>
		<line fill="none" stroke="#000000" stroke-miterlimit="10" x1="-1467.296" y1="691.6" x2="957.575" y2="-308.402"/>
		<line fill="none" stroke="#000000" stroke-miterlimit="10" x1="-1467.223" y1="647.689" x2="957.649" y2="-352.311"/>
		<line fill="none" stroke="#000000" stroke-miterlimit="10" x1="-1466.125" y1="601.049" x2="958.748" y2="-398.952"/>
		<line fill="none" stroke="#000000" stroke-miterlimit="10" x1="-1466.051" y1="557.141" x2="958.819" y2="-442.861"/>
		<line fill="none" stroke="#000000" stroke-miterlimit="10" x1="-1467.377" y1="511.498" x2="957.493" y2="-488.501"/>
		<line fill="none" stroke="#000000" stroke-miterlimit="10" x1="-1467.305" y1="467.59" x2="957.567" y2="-532.411"/>
		<line fill="none" stroke="#000000" stroke-miterlimit="10" x1="-1466.206" y1="420.949" x2="958.666" y2="-579.051"/>
		<line fill="none" stroke="#000000" stroke-miterlimit="10" x1="-1467.532" y1="375.309" x2="957.34" y2="-624.693"/>
		<line fill="none" stroke="#000000" stroke-miterlimit="10" x1="-1467.458" y1="331.398" x2="957.414" y2="-668.602"/>
		<line fill="none" stroke="#000000" stroke-miterlimit="10" x1="-1466.36" y1="284.758" x2="958.511" y2="-715.243"/>
		<line fill="none" stroke="#000000" stroke-miterlimit="10" x1="-1467.686" y1="239.117" x2="957.185" y2="-760.883"/>
		<line fill="none" stroke="#000000" stroke-miterlimit="10" x1="-1467.612" y1="195.207" x2="957.258" y2="-804.792"/>
		<line fill="none" stroke="#000000" stroke-miterlimit="10" x1="-1466.515" y1="148.566" x2="958.357" y2="-851.434"/>
		<line fill="none" stroke="#000000" stroke-miterlimit="10" x1="-1466.44" y1="104.658" x2="958.431" y2="-895.342"/>
		<line fill="none" stroke="#000000" stroke-miterlimit="10" x1="-1465.343" y1="58.018" x2="959.53" y2="-941.984"/>
		<line fill="none" stroke="#000000" stroke-miterlimit="10" x1="-1466.669" y1="12.375" x2="958.204" y2="-987.625"/>
		<line fill="none" stroke="#000000" stroke-miterlimit="10" x1="912.5" y1="-1647" x2="912.5" y2="663"/>
		<line fill="none" stroke="#000000" stroke-miterlimit="10" x1="862.5" y1="-1627" x2="862.5" y2="683"/>
		<line fill="none" stroke="#000000" stroke-miterlimit="10" x1="814.5" y1="-1607" x2="814.5" y2="703"/>
		<line fill="none" stroke="#000000" stroke-miterlimit="10" x1="767.5" y1="-1587" x2="767.5" y2="721"/>
		<line fill="none" stroke="#000000" stroke-miterlimit="10" x1="719.5" y1="-1567" x2="719.5" y2="741"/>
		<line fill="none" stroke="#000000" stroke-miterlimit="10" x1="674.5" y1="-1549" x2="674.5" y2="761"/>
		<line fill="none" stroke="#000000" stroke-miterlimit="10" x1="624.5" y1="-1529" x2="624.5" y2="781"/>
		<line fill="none" stroke="#000000" stroke-miterlimit="10" x1="576.5" y1="-1509" x2="576.5" y2="801"/>
		<line fill="none" stroke="#000000" stroke-miterlimit="10" x1="532.5" y1="-1489" x2="532.5" y2="819"/>
		<line fill="none" stroke="#000000" stroke-miterlimit="10" x1="481.5" y1="-1469" x2="481.5" y2="839"/>
		<line fill="none" stroke="#000000" stroke-miterlimit="10" x1="436.5" y1="-1451" x2="436.5" y2="859"/>
		<line fill="none" stroke="#000000" stroke-miterlimit="10" x1="389.5" y1="-1431" x2="389.5" y2="879"/>
		<line fill="none" stroke="#000000" stroke-miterlimit="10" x1="338.5" y1="-1411" x2="338.5" y2="899"/>
		<line fill="none" stroke="#000000" stroke-miterlimit="10" x1="294.5" y1="-1391" x2="294.5" y2="917"/>
		<line fill="none" stroke="#000000" stroke-miterlimit="10" x1="243.5" y1="-1371" x2="243.5" y2="937"/>
		<line fill="none" stroke="#000000" stroke-miterlimit="10" x1="198.5" y1="-1353" x2="198.5" y2="957"/>
		<line fill="none" stroke="#000000" stroke-miterlimit="10" x1="151.5" y1="-1333" x2="151.5" y2="977"/>
		<line fill="none" stroke="#000000" stroke-miterlimit="10" x1="100.5" y1="-1313" x2="100.5" y2="997"/>
		<line fill="none" stroke="#000000" stroke-miterlimit="10" x1="56.5" y1="-1293" x2="56.5" y2="1015"/>
		<line fill="none" stroke="#000000" stroke-miterlimit="10" x1="8.5" y1="-1273" x2="8.5" y2="1035"/>
	</g>
</g>
<g id="Layer_2">
</g>
<g id="Layer_4">
</g>
<g id="Layer_5">
</g>
<g id="Layer_6">
	<polygon fill="#143254" points="81,70.844 290,188.034 290,986.419 81,869.76 	"/>
	<polygon fill="#143254" points="290,484.146 290,585.482 711,411.882 711,310.112 	"/>
	<polygon fill="#143254" points="605,58.977 605,856.443 396,943.527 396,144.891 	"/>
	<polygon fill="#143254" points="711,14.566 920,126.982 920,924.735 711,813.796 	"/>
	<polygon fill="#143254" points="711,14.305 605,58.977 605,155.906 711,111.721 	"/>
</g>
<g id="Layer_3" display="none">
</g>
<g id="Layer_7">
</g>
<g id="Layer_8">
</g>
</svg>
