<?xml version="1.0" encoding="utf-8"?>
<!-- Generator: Adobe Illustrator 16.0.0, SVG Export Plug-In . SVG Version: 6.00 Build 0)  -->
<!DOCTYPE svg PUBLIC "-//W3C//DTD SVG 1.1//EN" "http://www.w3.org/Graphics/SVG/1.1/DTD/svg11.dtd">
<svg version="1.1" xmlns="http://www.w3.org/2000/svg" xmlns:xlink="http://www.w3.org/1999/xlink" x="0px" y="0px" width="1000px"
	 height="1000px" viewBox="0 0 1000 1000" enable-background="new 0 0 1000 1000" xml:space="preserve">
<g id="Layer_1" display="none">
	<g display="inline">
		<polygon fill="none" stroke="#000000" stroke-miterlimit="10" points="-427.5,373.833 1997.5,-626.167 1997.5,1683.234 
			-427.5,2683.234 		"/>
		<line fill="none" stroke="#000000" stroke-miterlimit="10" x1="-426.915" y1="1960.072" x2="1997.958" y2="960.072"/>
		<line fill="none" stroke="#000000" stroke-miterlimit="10" x1="-425.816" y1="1913.432" x2="1999.055" y2="913.43"/>
		<line fill="none" stroke="#000000" stroke-miterlimit="10" x1="-427.142" y1="1867.789" x2="1997.729" y2="867.79"/>
		<line fill="none" stroke="#000000" stroke-miterlimit="10" x1="-427.068" y1="1823.881" x2="1997.802" y2="823.88"/>
		<line fill="none" stroke="#000000" stroke-miterlimit="10" x1="-425.97" y1="1777.24" x2="1998.901" y2="777.24"/>
		<line fill="none" stroke="#000000" stroke-miterlimit="10" x1="-427.296" y1="1731.6" x2="1997.575" y2="731.598"/>
		<line fill="none" stroke="#000000" stroke-miterlimit="10" x1="-427.223" y1="1687.689" x2="1997.649" y2="687.689"/>
		<line fill="none" stroke="#000000" stroke-miterlimit="10" x1="-426.125" y1="1641.049" x2="1998.748" y2="641.048"/>
		<line fill="none" stroke="#000000" stroke-miterlimit="10" x1="-426.051" y1="1597.141" x2="1998.819" y2="597.139"/>
		<line fill="none" stroke="#000000" stroke-miterlimit="10" x1="-427.377" y1="1551.498" x2="1997.493" y2="551.499"/>
		<line fill="none" stroke="#000000" stroke-miterlimit="10" x1="-427.305" y1="1507.59" x2="1997.567" y2="507.589"/>
		<line fill="none" stroke="#000000" stroke-miterlimit="10" x1="-426.206" y1="1460.949" x2="1998.666" y2="460.949"/>
		<line fill="none" stroke="#000000" stroke-miterlimit="10" x1="-427.532" y1="1415.309" x2="1997.34" y2="415.307"/>
		<line fill="none" stroke="#000000" stroke-miterlimit="10" x1="-427.458" y1="1371.398" x2="1997.414" y2="371.398"/>
		<line fill="none" stroke="#000000" stroke-miterlimit="10" x1="-426.36" y1="1324.758" x2="1998.511" y2="324.757"/>
		<line fill="none" stroke="#000000" stroke-miterlimit="10" x1="-427.686" y1="1279.117" x2="1997.185" y2="279.117"/>
		<line fill="none" stroke="#000000" stroke-miterlimit="10" x1="-427.612" y1="1235.207" x2="1997.258" y2="235.208"/>
		<line fill="none" stroke="#000000" stroke-miterlimit="10" x1="-426.515" y1="1188.566" x2="1998.357" y2="188.566"/>
		<line fill="none" stroke="#000000" stroke-miterlimit="10" x1="-426.44" y1="1144.658" x2="1998.431" y2="144.658"/>
		<line fill="none" stroke="#000000" stroke-miterlimit="10" x1="-425.343" y1="1098.018" x2="1999.53" y2="98.016"/>
		<line fill="none" stroke="#000000" stroke-miterlimit="10" x1="-426.669" y1="1052.375" x2="1998.204" y2="52.375"/>
		<line fill="none" stroke="#000000" stroke-miterlimit="10" x1="-426.595" y1="1008.466" x2="1998.275" y2="8.466"/>
		<line fill="none" stroke="#000000" stroke-miterlimit="10" x1="-425.497" y1="961.826" x2="1999.374" y2="-38.174"/>
		<line fill="none" stroke="#000000" stroke-miterlimit="10" x1="-425.423" y1="917.917" x2="1999.448" y2="-82.083"/>
		<line fill="none" stroke="#000000" stroke-miterlimit="10" x1="-426.75" y1="872.275" x2="1998.122" y2="-127.725"/>
		<line fill="none" stroke="#000000" stroke-miterlimit="10" x1="-425.65" y1="825.634" x2="1999.222" y2="-174.366"/>
		<line fill="none" stroke="#000000" stroke-miterlimit="10" x1="-425.578" y1="781.725" x2="1999.295" y2="-218.275"/>
		<line fill="none" stroke="#000000" stroke-miterlimit="10" x1="-426.904" y1="736.084" x2="1997.969" y2="-263.916"/>
		<line fill="none" stroke="#000000" stroke-miterlimit="10" x1="-426.83" y1="692.175" x2="1998.04" y2="-307.825"/>
		<line fill="none" stroke="#000000" stroke-miterlimit="10" x1="-425.732" y1="645.535" x2="1999.14" y2="-354.465"/>
		<line fill="none" stroke="#000000" stroke-miterlimit="10" x1="-427.059" y1="599.893" x2="1997.813" y2="-400.107"/>
		<line fill="none" stroke="#000000" stroke-miterlimit="10" x1="-426.985" y1="555.985" x2="1997.887" y2="-444.015"/>
		<line fill="none" stroke="#000000" stroke-miterlimit="10" x1="-425.887" y1="509.343" x2="1998.986" y2="-490.657"/>
		<line fill="none" stroke="#000000" stroke-miterlimit="10" x1="-425.813" y1="465.434" x2="1999.06" y2="-534.566"/>
		<line fill="none" stroke="#000000" stroke-miterlimit="10" x1="-427.139" y1="419.793" x2="1997.733" y2="-580.207"/>
		<line fill="none" stroke="#000000" stroke-miterlimit="10" x1="998.5" y1="-213" x2="998.5" y2="2095"/>
		<line fill="none" stroke="#000000" stroke-miterlimit="10" x1="953.5" y1="-195" x2="953.5" y2="2115"/>
		<line fill="none" stroke="#000000" stroke-miterlimit="10" x1="902.5" y1="-175" x2="902.5" y2="2135"/>
		<line fill="none" stroke="#000000" stroke-miterlimit="10" x1="858.5" y1="-155" x2="858.5" y2="2153"/>
		<line fill="none" stroke="#000000" stroke-miterlimit="10" x1="810.5" y1="-135" x2="810.5" y2="2173"/>
		<line fill="none" stroke="#000000" stroke-miterlimit="10" x1="762.5" y1="-117" x2="762.5" y2="2193"/>
		<line fill="none" stroke="#000000" stroke-miterlimit="10" x1="715.5" y1="-97" x2="715.5" y2="2213"/>
		<line fill="none" stroke="#000000" stroke-miterlimit="10" x1="667.5" y1="-77" x2="667.5" y2="2233"/>
		<line fill="none" stroke="#000000" stroke-miterlimit="10" x1="620.5" y1="-57" x2="620.5" y2="2251"/>
		<line fill="none" stroke="#000000" stroke-miterlimit="10" x1="572.5" y1="-37" x2="572.5" y2="2271"/>
		<line fill="none" stroke="#000000" stroke-miterlimit="10" x1="522.5" y1="-17" x2="522.5" y2="2291"/>
		<line fill="none" stroke="#000000" stroke-miterlimit="10" x1="477.5" y1="1" x2="477.5" y2="2311"/>
		<line fill="none" stroke="#000000" stroke-miterlimit="10" x1="429.5" y1="21" x2="429.5" y2="2331"/>
		<line fill="none" stroke="#000000" stroke-miterlimit="10" x1="382.5" y1="41" x2="382.5" y2="2349"/>
		<line fill="none" stroke="#000000" stroke-miterlimit="10" x1="334.5" y1="61" x2="334.5" y2="2369"/>
		<line fill="none" stroke="#000000" stroke-miterlimit="10" x1="286.5" y1="81" x2="286.5" y2="2389"/>
		<line fill="none" stroke="#000000" stroke-miterlimit="10" x1="239.5" y1="99" x2="239.5" y2="2409"/>
		<line fill="none" stroke="#000000" stroke-miterlimit="10" x1="191.5" y1="119" x2="191.5" y2="2429"/>
		<line fill="none" stroke="#000000" stroke-miterlimit="10" x1="144.5" y1="139" x2="144.5" y2="2447"/>
		<line fill="none" stroke="#000000" stroke-miterlimit="10" x1="96.5" y1="159" x2="96.5" y2="2467"/>
		<line fill="none" stroke="#000000" stroke-miterlimit="10" x1="48.5" y1="179" x2="48.5" y2="2487"/>
		<line fill="none" stroke="#000000" stroke-miterlimit="10" x1="1.5" y1="197" x2="1.5" y2="2507"/>
	</g>
</g>
<g id="Layer_2">
</g>
<g id="Layer_4">
	<polygon fill="#07111C" points="81,71.844 290,189.034 290,987.419 81,870.76 	"/>
	<polygon fill="#07111C" points="290,485.146 290,586.482 711,412.882 711,311.112 	"/>
	<polygon fill="#07111C" points="605,59.976 605,857.443 396,944.527 396,145.891 	"/>
	<polygon fill="#07111C" points="711,15.567 920,127.982 920,925.735 711,814.796 	"/>
	<polygon fill="#07111C" points="711,15.304 605,59.976 605,156.906 711,112.72 	"/>
</g>
<g id="Layer_5">
</g>
<g id="Layer_6">
</g>
<g id="Layer_3" display="none">
</g>
<g id="Layer_7">
</g>
<g id="Layer_8">
</g>
</svg>
